<svg xmlns="http://www.w3.org/2000/svg" width="32" height="29">
    <path fill-rule="evenodd" fill="#222" d="m31.899 7.565-5.406 12.412a1.185 1.185 0 0 1-1.084.709H10.554a1.183 1.183 0 0 1-1.144-.867L4.577 2.364H1.184A1.187 1.187 0 0 1 0 1.182C0 .532.533 0 1.184 0h4.28c.533 0 1.007.354 1.145.867l4.833 17.455H24.62l4.379-10.048H14.401a1.187 1.187 0 0 1-1.184-1.182c0-.65.533-1.182 1.184-1.182h16.413c.394 0 .769.197.986.532.217.335.257.749.099 1.123zM9.429 23.641a2.684 2.684 0 0 1 2.683 2.679A2.684 2.684 0 0 1 9.429 29a2.684 2.684 0 0 1-2.682-2.68 2.684 2.684 0 0 1 2.682-2.679zm16.591 0c1.48-.098 2.762 1.025 2.861 2.483.039.728-.178 1.418-.651 1.95a2.68 2.68 0 0 1-1.835.926h-.197c-1.401 0-2.565-1.103-2.663-2.502-.099-1.458 1.006-2.758 2.485-2.857z"/>
</svg>
